<svg width="66" height="89" viewBox="0 0 66 89" fill="none" xmlns="http://www.w3.org/2000/svg">
<path d="M66 56.7393C66 74.0368 51.2188 88.0618 33 88.0618C14.7812 88.0618 0 74.0368 0 56.7393C0 38.2731 21.6975 10.4293 29.9062 0.570584C30.0795 0.330478 30.3255 0.152687 30.6079 0.0636522C30.8902 -0.0253829 31.1938 -0.0209072 31.4734 0.0764138C31.753 0.173735 31.9937 0.358703 32.1598 0.603811C32.3258 0.848919 32.4083 1.14108 32.395 1.43683C31.6937 9.68683 32.175 27.3418 46.9425 36.1418C47.2379 36.342 47.5996 36.4195 47.9511 36.358C48.3027 36.2964 48.6165 36.1005 48.8262 35.8118C50.6771 33.0851 51.747 29.9041 51.92 26.6131C51.9361 26.3108 52.0515 26.0223 52.2483 25.7923C52.445 25.5623 52.7122 25.4037 53.0084 25.341C53.3045 25.2783 53.613 25.3151 53.8861 25.4457C54.1592 25.5762 54.3816 25.7933 54.5188 26.0631C60.8025 36.4031 66 47.6918 66 56.7393Z" fill="#FF7F00"/>
<path d="M12.375 68.4818C12.375 79.3031 21.615 88.0618 33 88.0618C44.385 88.0618 53.625 79.3031 53.625 68.4818C53.625 57.6606 41.6763 41.6556 35.97 34.6431C35.799 34.3965 35.5521 34.2126 35.2669 34.1194C34.9816 34.0263 34.6738 34.029 34.3902 34.1271C34.1067 34.2253 33.863 34.4135 33.6964 34.663C33.5298 34.9126 33.4494 35.2098 33.4675 35.5093C33.6737 41.0093 32.7113 50.3181 24.7362 55.3781C24.5813 55.4807 24.4072 55.5508 24.2244 55.5842C24.0417 55.6176 23.854 55.6136 23.6728 55.5725C23.4916 55.5314 23.3206 55.454 23.1702 55.3449C23.0197 55.2359 22.893 55.0975 22.7975 54.9381C22.1044 53.7511 21.6381 52.4456 21.4225 51.0881C21.3911 50.7893 21.2628 50.509 21.0571 50.2901C20.8514 50.0712 20.5796 49.9256 20.2834 49.8757C19.9871 49.8259 19.6827 49.8743 19.4166 50.0138C19.1506 50.1533 18.9375 50.3761 18.81 50.6481C15.1938 56.7393 12.375 63.2156 12.375 68.4818Z" fill="#FFDA00"/>
<path d="M44.3438 77.2956C44.3136 78.7497 43.9953 80.1835 43.4074 81.5138C42.8194 82.8441 41.9735 84.0446 40.9186 85.0459C39.8636 86.0472 38.6205 86.8293 37.2613 87.3469C35.9021 87.8646 34.4537 88.1076 33 88.0618C31.5463 88.1076 30.0979 87.8646 28.7387 87.3469C27.3795 86.8293 26.1364 86.0472 25.0814 85.0459C24.0265 84.0446 23.1806 82.8441 22.5926 81.5138C22.0047 80.1835 21.6864 78.7497 21.6562 77.2956C21.6562 71.9743 26.8812 64.4118 30.25 60.0943C30.4145 59.858 30.649 59.6792 30.9204 59.5833C31.1919 59.4873 31.4867 59.479 31.7631 59.5595C32.0396 59.64 32.2838 59.8053 32.4613 60.032C32.6388 60.2587 32.7407 60.5354 32.7525 60.8231C32.7578 62.4978 33.1298 64.1511 33.8425 65.6666C34.5551 67.1822 35.5911 68.5233 36.8775 69.5956C37.0456 69.7403 37.2462 69.8422 37.4622 69.8926C37.6782 69.943 37.9032 69.9404 38.1179 69.885C38.3327 69.8296 38.5309 69.7231 38.6956 69.5746C38.8603 69.426 38.9866 69.2398 39.0637 69.0318C39.1459 68.7728 39.3029 68.544 39.5149 68.3741C39.727 68.2043 39.9847 68.1011 40.2553 68.0776C40.526 68.054 40.7976 68.1112 41.0358 68.2419C41.274 68.3726 41.4682 68.5709 41.5938 68.8118C43.1586 71.387 44.1003 74.2921 44.3438 77.2956Z" fill="white"/>
</svg>
